<svg width="115" height="27" viewBox="0 0 115 27" fill="none" xmlns="http://www.w3.org/2000/svg">
<g clip-path="url(#clip0_1607_14)">
<g clip-path="url(#clip1_1607_14)">
<g clip-path="url(#clip2_1607_14)">
<path d="M94.0857 5.46026H97.3322C97.3925 5.46026 97.4504 5.48503 97.493 5.52911C97.5356 5.57319 97.5596 5.63298 97.5596 5.69532V8.10317C98.0363 6.6826 99.3541 5.23303 101.485 5.23303C103.392 5.23303 104.71 6.13176 105.439 8.01619C106.252 6.27672 107.345 5.23303 109.476 5.23303C113.149 5.23303 115 7.78426 115 11.5798V20.4213C115 20.4837 114.976 20.5435 114.933 20.5875C114.891 20.6316 114.833 20.6564 114.773 20.6564H111.498C111.438 20.6564 111.38 20.6316 111.337 20.5875C111.295 20.5435 111.271 20.4837 111.271 20.4213V12.5968C111.271 10.4812 110.794 8.654 108.972 8.654C107.317 8.654 106.308 10.5345 106.308 13.5245V20.4198C106.308 20.4821 106.284 20.5419 106.241 20.586C106.199 20.6301 106.141 20.6548 106.081 20.6548H102.89C102.83 20.6548 102.772 20.6301 102.729 20.586C102.687 20.5419 102.663 20.4821 102.663 20.4198V12.5968C102.663 10.4812 102.354 8.654 100.335 8.654C98.1765 8.654 97.6437 11.1472 97.6437 14.0174V20.4213C97.6437 20.4837 97.6198 20.5435 97.5771 20.5875C97.5345 20.6316 97.4767 20.6564 97.4164 20.6564H94.0857C94.0254 20.6564 93.9676 20.6316 93.925 20.5875C93.8823 20.5435 93.8584 20.4837 93.8584 20.4213V5.69532C93.8584 5.63298 93.8823 5.57319 93.925 5.52911C93.9676 5.48503 94.0254 5.46026 94.0857 5.46026Z" fill="#000"/>
<path d="M88.9326 8.24997C89.7181 6.34506 91.2384 5.58012 93.1371 5.50824C93.1609 5.50761 93.1845 5.51192 93.2067 5.52091C93.2288 5.52989 93.249 5.54338 93.266 5.56056C93.2831 5.57775 93.2966 5.59829 93.3059 5.62097C93.3151 5.64365 93.3199 5.66802 93.3199 5.69264V8.99224C93.3201 9.0406 93.3017 9.08707 93.2689 9.12148C93.2361 9.15589 93.1914 9.17544 93.1446 9.17586C92.7459 9.18133 91.8917 9.21336 91.4476 9.41026C90.2181 9.72827 89.0165 10.451 89.0165 13.978V20.4217C89.0165 20.4839 88.9926 20.5435 88.9501 20.5875C88.9076 20.6314 88.85 20.6561 88.7899 20.6561H85.4668C85.4067 20.6561 85.3491 20.6314 85.3066 20.5875C85.2641 20.5435 85.2402 20.4839 85.2402 20.4217V5.9411C85.2402 5.87893 85.2641 5.81931 85.3066 5.77536C85.3491 5.7314 85.4067 5.7067 85.4668 5.7067H88.7023C88.7624 5.7067 88.82 5.7314 88.8625 5.77536C88.905 5.81931 88.9289 5.87893 88.9289 5.9411L88.9326 8.24997Z" fill="#000"/>
<path d="M69.4846 13.122C69.4846 8.23786 72.9253 5.23303 77.1205 5.23303C81.2885 5.23303 84.7012 8.23864 84.7012 13.122C84.7012 18.035 81.2885 21.0695 77.1205 21.0695C72.9253 21.0695 69.4846 18.035 69.4846 13.122ZM77.1205 17.9772C79.4982 17.9772 81.0647 15.7808 81.0647 13.122C81.0647 10.4921 79.4982 8.29566 77.1205 8.29566C74.7148 8.29566 73.1483 10.4921 73.1483 13.122C73.1491 15.7808 74.7156 17.9772 77.1213 17.9772H77.1205Z" fill="#000"/>
<path d="M69.6194 3.20616V0.234597C69.6194 0.172378 69.5955 0.112707 69.5529 0.0687117C69.5104 0.0247162 69.4526 0 69.3924 0H57.0536C56.9934 0 56.9357 0.0247162 56.8931 0.0687117C56.8506 0.112707 56.8267 0.172378 56.8267 0.234597V20.4217C56.8267 20.4839 56.8506 20.5436 56.8931 20.5876C56.9357 20.6316 56.9934 20.6563 57.0536 20.6563H60.5182C60.5784 20.6563 60.6361 20.6316 60.6787 20.5876C60.7212 20.5436 60.7451 20.4839 60.7451 20.4217V12.1529C60.7451 12.0907 60.7691 12.031 60.8116 11.987C60.8542 11.943 60.9119 11.9183 60.9721 11.9183H68.7198C68.78 11.9183 68.8377 11.8936 68.8803 11.8496C68.9229 11.8056 68.9468 11.7459 68.9468 11.6837V8.79661C68.9468 8.73439 68.9229 8.67472 68.8803 8.63072C68.8377 8.58673 68.78 8.56201 68.7198 8.56201H60.9729C60.9127 8.56201 60.8549 8.5373 60.8124 8.4933C60.7698 8.4493 60.7459 8.38963 60.7459 8.32741V3.44076H69.3932C69.4533 3.44055 69.5108 3.41574 69.5532 3.37177C69.5956 3.3278 69.6194 3.26824 69.6194 3.20616Z" fill="#000"/>
<path d="M31.1992 5.64637H34.5676C34.6181 5.64641 34.6671 5.66405 34.7068 5.69647C34.7465 5.7289 34.7747 5.77424 34.7868 5.82528L36.3332 12.295C36.7512 14.066 36.9185 15.2854 37.2808 17.1436H37.3079C37.7259 15.3725 37.8931 14.066 38.3669 12.0627L39.798 5.82685C39.81 5.77512 39.8383 5.72913 39.8785 5.69636C39.9188 5.66358 39.9684 5.64597 40.0195 5.64637H43.8994C43.9502 5.64632 43.9995 5.6641 44.0394 5.69685C44.0793 5.72959 44.1075 5.77539 44.1193 5.82685L45.5821 12.1208C45.9444 13.6596 46.2788 15.5734 46.6411 17.1726H46.669C46.9756 15.75 47.3379 13.8338 47.7002 12.1208L49.1087 5.82842C49.1203 5.77654 49.1484 5.73028 49.1885 5.69722C49.2286 5.66415 49.2783 5.64623 49.3294 5.64637H52.6948C52.73 5.64625 52.7647 5.65467 52.7962 5.67096C52.8276 5.68725 52.855 5.71096 52.8761 5.74022C52.8973 5.76947 52.9116 5.80345 52.9179 5.83947C52.9242 5.87549 52.9224 5.91254 52.9125 5.94769L48.8903 20.4863C48.8767 20.5355 48.8481 20.5787 48.8088 20.6094C48.7695 20.6402 48.7217 20.6567 48.6726 20.6566H44.5908C44.5406 20.6566 44.4917 20.6392 44.452 20.6071C44.4123 20.575 44.3841 20.53 44.3717 20.4792L42.9096 14.5015C42.5473 12.9918 42.1564 11.2498 41.9899 9.97233H41.8792C41.6005 11.5111 41.3218 12.8176 40.9595 14.4725L39.4975 20.4769C39.4851 20.5276 39.4568 20.5726 39.4171 20.6047C39.3774 20.6369 39.3286 20.6543 39.2783 20.6542H35.2207C35.1717 20.6542 35.124 20.6375 35.0849 20.6068C35.0458 20.5761 35.0173 20.533 35.0037 20.484L30.9807 5.9469C30.971 5.91174 30.9693 5.8747 30.9757 5.83873C30.9822 5.80276 30.9965 5.76884 31.0177 5.73967C31.0389 5.71049 31.0664 5.68687 31.0979 5.67068C31.1294 5.65448 31.1641 5.64616 31.1992 5.64637Z" fill="#000"/>
<path d="M24.8362 21.0695C20.4306 21.0695 17.3713 17.8674 17.3713 13.1076C17.3713 8.54971 20.5428 5.23303 24.8643 5.23303C29.6917 5.23303 32.0213 8.95435 32.0493 13.4834C32.0493 13.591 32.0493 13.7953 32.0379 14.0128C32.0346 14.0725 32.0092 14.1286 31.9669 14.1697C31.9246 14.2107 31.8686 14.2335 31.8104 14.2334H21.2566C21.2231 14.2329 21.1899 14.24 21.1594 14.2542C21.1288 14.2684 21.1017 14.2894 21.08 14.3156C21.0583 14.3418 21.0424 14.3726 21.0336 14.4059C21.0248 14.4391 21.0233 14.474 21.0291 14.5079C21.3932 16.6278 22.8686 17.9548 24.8332 17.9548C26.2153 17.9548 27.4123 17.4714 27.9751 16.3479C27.9945 16.3105 28.0233 16.2793 28.0586 16.2574C28.0939 16.2356 28.1342 16.224 28.1754 16.2239H31.507C31.5434 16.2238 31.5794 16.2326 31.6119 16.2498C31.6443 16.2669 31.6723 16.2918 31.6934 16.3224C31.7145 16.353 31.7282 16.3883 31.7332 16.4255C31.7383 16.4626 31.7345 16.5004 31.7224 16.5358C30.7712 19.2989 28.274 21.0695 24.8362 21.0695ZM28.1352 11.6652C28.1686 11.6657 28.2018 11.6587 28.2322 11.6445C28.2627 11.6303 28.2898 11.6095 28.3115 11.5833C28.3332 11.5572 28.3491 11.5265 28.3579 11.4933C28.3668 11.4602 28.3684 11.4254 28.3628 11.3916C28.0677 9.70751 26.9974 8.17469 24.8393 8.17469C22.8587 8.17469 21.4903 9.46113 21.0761 11.383C21.0691 11.4171 21.0696 11.4524 21.0776 11.4862C21.0855 11.5201 21.1007 11.5517 21.1221 11.5788C21.1435 11.6058 21.1705 11.6276 21.2011 11.6426C21.2317 11.6576 21.2652 11.6653 21.2991 11.6652H28.1352Z" fill="#000"/>
<path d="M5.06871 7.03266e-07C5.10957 -0.000103322 5.14969 0.0113347 5.18479 0.0330934C5.21988 0.054852 5.24863 0.0861129 5.26797 0.12354L10.9909 11.1671C11.8533 12.9608 12.5767 14.523 13.1053 15.624C13.0496 13.9749 13.0218 12.1836 13.0218 10.185V0.234571C13.0218 0.172359 13.0456 0.112695 13.0879 0.0687046C13.1302 0.0247141 13.1876 7.03266e-07 13.2474 7.03266e-07H16.607C16.6668 7.03266e-07 16.7242 0.0247141 16.7665 0.0687046C16.8088 0.112695 16.8326 0.172359 16.8326 0.234571V20.4217C16.8326 20.4839 16.8088 20.5436 16.7665 20.5876C16.7242 20.6316 16.6668 20.6563 16.607 20.6563H11.818C11.7775 20.6562 11.7378 20.6449 11.703 20.6234C11.6682 20.602 11.6396 20.5712 11.6202 20.5343L6.42669 10.7042C5.36948 8.33194 4.31228 6.42254 3.75586 5.15273C3.8115 6.77283 3.8115 9.08726 3.8115 11.0256V20.4217C3.8115 20.4839 3.78773 20.5436 3.74543 20.5876C3.70312 20.6316 3.64575 20.6563 3.58592 20.6563H0.225577C0.16575 20.6563 0.108374 20.6316 0.0660698 20.5876C0.0237659 20.5436 0 20.4839 0 20.4217V0.234571C0 0.172359 0.0237659 0.112695 0.0660698 0.0687046C0.108374 0.0247141 0.16575 7.03266e-07 0.225577 7.03266e-07H5.06871Z" fill="#000"/>
</g>
<path d="M48.446 24.137H0.224839C0.100664 24.137 0 24.2219 0 24.3267V26.9472C0 27.052 0.100664 27.137 0.224839 27.137H48.446C48.5702 27.137 48.6708 27.052 48.6708 26.9472V24.3267C48.6708 24.2219 48.5702 24.137 48.446 24.137Z" fill="#2BEE4B"/>
</g>
</g>
<defs>
<clipPath id="clip0_1607_14">
<rect width="115" height="27" fill="white"/>
</clipPath>
<clipPath id="clip1_1607_14">
<rect width="115" height="27.8172" fill="white"/>
</clipPath>
<clipPath id="clip2_1607_14">
<rect width="115" height="21.0695" fill="white"/>
</clipPath>
</defs>
</svg>
